<svg width="191" height="191" viewBox="0 0 191 191" fill="none" xmlns="http://www.w3.org/2000/svg">
<g id="Group">
<path id="Vector" d="M58.3799 183.151C61.9174 184.636 65.5136 185.887 69.1684 186.923L186.924 69.1678C185.888 65.513 184.637 61.9168 183.152 58.3793L58.3799 183.151Z" fill="#7657FD" fill-opacity="0.6"/>
<path id="Vector_2" d="M43.1553 175.079C46.1651 177.053 49.2531 178.812 52.3998 180.395L180.396 52.3987C178.813 49.2325 177.054 46.1444 175.08 43.1541L43.1553 175.079Z" fill="#7657FD" fill-opacity="0.6"/>
<path id="Vector_3" d="M30.1191 164.779C32.6599 167.164 35.2984 169.392 38.0151 171.444L171.445 38.014C169.393 35.2973 167.165 32.6588 164.78 30.118L30.1191 164.779Z" fill="#7657FD" fill-opacity="0.6"/>
<path id="Vector_4" d="M64.4766 5.04248C51.0887 9.59634 38.5216 17.1992 27.8504 27.8509C17.1791 38.5221 9.59585 51.0892 5.04199 64.4771L64.4766 5.04248Z" fill="#7657FD" fill-opacity="0.6"/>
<path id="Vector_5" d="M188.703 114.061C189.778 108.647 190.384 103.175 190.521 97.6831L97.6846 190.519C103.177 190.382 108.668 189.776 114.063 188.702L188.703 114.061Z" fill="#7657FD" fill-opacity="0.6"/>
<path id="Vector_6" d="M76.2227 188.643C80.4833 189.503 84.7636 190.07 89.0829 190.343L190.343 89.0836C190.069 84.7643 189.502 80.4645 188.642 76.2234L76.2227 188.643Z" fill="#7657FD" fill-opacity="0.6"/>
<path id="Vector_7" d="M10.124 138.121C11.7071 141.287 13.4661 144.375 15.4401 147.365L147.365 15.4401C144.355 13.4661 141.267 11.7071 138.121 10.124L10.124 138.121Z" fill="#7657FD" fill-opacity="0.6"/>
<path id="Vector_8" d="M1.81762 76.4579C0.742675 81.8717 0.136811 87.3441 0 92.8361L92.8361 0C87.3441 0.136811 81.8521 0.742675 76.4579 1.81762L1.81762 76.4579Z" fill="#7657FD" fill-opacity="0.6"/>
<path id="Vector_9" d="M126.043 185.477C139.431 180.923 151.998 173.32 162.669 162.668C173.341 151.997 180.924 139.43 185.478 126.042L126.043 185.477Z" fill="#7657FD" fill-opacity="0.6"/>
<path id="Vector_10" d="M3.5957 121.332C4.63156 124.987 5.88239 128.583 7.36777 132.12L132.139 7.34872C128.602 5.86334 125.006 4.61245 121.351 3.5766L3.5957 121.332Z" fill="#7657FD" fill-opacity="0.6"/>
<path id="Vector_11" d="M0.176758 101.436C0.45038 105.755 1.01716 110.055 1.87712 114.296L114.297 1.87632C110.036 1.01637 105.756 0.449587 101.437 0.175964L0.176758 101.436Z" fill="#7657FD" fill-opacity="0.6"/>
<path id="Vector_12" d="M19.0762 152.505C21.1283 155.222 23.3564 157.861 25.7408 160.401L160.422 25.7205C157.881 23.3361 155.242 21.108 152.526 19.0558L19.0762 152.505Z" fill="#7657FD" fill-opacity="0.6"/>
</g>
</svg>
