<svg width="151" height="151" viewBox="0 0 151 151" fill="none" xmlns="http://www.w3.org/2000/svg">
<path id="Vector" d="M145.178 11.6443C141.97 11.6443 139.356 9.0303 139.356 5.82217C139.356 2.61404 141.97 0 145.178 0C148.386 0 151 2.61404 151 5.82217C151 9.0501 148.386 11.6443 145.178 11.6443ZM151 40.6561C151 37.448 148.386 34.834 145.178 34.834C141.97 34.834 139.356 37.448 139.356 40.6561C139.356 43.8643 141.97 46.4783 145.178 46.4783C148.386 46.4783 151 43.8841 151 40.6561ZM151 75.4901C151 72.282 148.386 69.6679 145.178 69.6679C141.97 69.6679 139.356 72.282 139.356 75.4901C139.356 78.6982 141.97 81.3123 145.178 81.3123C148.386 81.3321 151 78.718 151 75.4901ZM151 110.344C151 107.136 148.386 104.522 145.178 104.522C141.97 104.522 139.356 107.136 139.356 110.344C139.356 113.552 141.97 116.166 145.178 116.166C148.386 116.166 151 113.552 151 110.344ZM151 145.178C151 141.97 148.386 139.356 145.178 139.356C141.97 139.356 139.356 141.97 139.356 145.178C139.356 148.386 141.97 151 145.178 151C148.386 151 151 148.386 151 145.178ZM116.166 5.82217C116.166 2.61404 113.552 0 110.344 0C107.136 0 104.522 2.61404 104.522 5.82217C104.522 9.0303 107.136 11.6443 110.344 11.6443C113.552 11.6443 116.166 9.0501 116.166 5.82217ZM116.166 40.6561C116.166 37.448 113.552 34.834 110.344 34.834C107.136 34.834 104.522 37.448 104.522 40.6561C104.522 43.8643 107.136 46.4783 110.344 46.4783C113.552 46.4783 116.166 43.8841 116.166 40.6561ZM116.166 75.4901C116.166 72.282 113.552 69.6679 110.344 69.6679C107.136 69.6679 104.522 72.282 104.522 75.4901C104.522 78.6982 107.136 81.3123 110.344 81.3123C113.552 81.3321 116.166 78.718 116.166 75.4901ZM116.166 110.344C116.166 107.136 113.552 104.522 110.344 104.522C107.136 104.522 104.522 107.136 104.522 110.344C104.522 113.552 107.136 116.166 110.344 116.166C113.552 116.166 116.166 113.552 116.166 110.344ZM116.166 145.178C116.166 141.97 113.552 139.356 110.344 139.356C107.136 139.356 104.522 141.97 104.522 145.178C104.522 148.386 107.136 151 110.344 151C113.552 151 116.166 148.386 116.166 145.178ZM81.3123 5.82217C81.3123 2.61404 78.6982 0 75.4901 0C72.282 0 69.6679 2.61404 69.6679 5.82217C69.6679 9.0303 72.282 11.6443 75.4901 11.6443C78.718 11.6443 81.3123 9.0501 81.3123 5.82217ZM81.3123 40.6561C81.3123 37.448 78.6982 34.834 75.4901 34.834C72.282 34.834 69.6679 37.448 69.6679 40.6561C69.6679 43.8643 72.282 46.4783 75.4901 46.4783C78.718 46.4783 81.3123 43.8841 81.3123 40.6561ZM81.3123 75.4901C81.3123 72.282 78.6982 69.6679 75.4901 69.6679C72.282 69.6679 69.6679 72.282 69.6679 75.4901C69.6679 78.6982 72.282 81.3123 75.4901 81.3123C78.718 81.3321 81.3123 78.718 81.3123 75.4901ZM81.3123 110.344C81.3123 107.136 78.6982 104.522 75.4901 104.522C72.282 104.522 69.6679 107.136 69.6679 110.344C69.6679 113.552 72.282 116.166 75.4901 116.166C78.718 116.166 81.3123 113.552 81.3123 110.344ZM81.3123 145.178C81.3123 141.97 78.6982 139.356 75.4901 139.356C72.282 139.356 69.6679 141.97 69.6679 145.178C69.6679 148.386 72.282 151 75.4901 151C78.718 151 81.3123 148.386 81.3123 145.178ZM46.4782 5.82217C46.4782 2.61404 43.8642 0 40.6561 0C37.4479 0 34.834 2.61404 34.834 5.82217C34.834 9.0303 37.4479 11.6443 40.6561 11.6443C43.884 11.6443 46.4782 9.0501 46.4782 5.82217ZM46.4782 40.6561C46.4782 37.448 43.8642 34.834 40.6561 34.834C37.4479 34.834 34.834 37.448 34.834 40.6561C34.834 43.8643 37.4479 46.4783 40.6561 46.4783C43.884 46.4783 46.4782 43.8841 46.4782 40.6561ZM46.4782 75.4901C46.4782 72.282 43.8642 69.6679 40.6561 69.6679C37.4479 69.6679 34.834 72.282 34.834 75.4901C34.834 78.6982 37.4479 81.3123 40.6561 81.3123C43.884 81.3321 46.4782 78.718 46.4782 75.4901ZM46.4782 110.344C46.4782 107.136 43.8642 104.522 40.6561 104.522C37.4479 104.522 34.834 107.136 34.834 110.344C34.834 113.552 37.4479 116.166 40.6561 116.166C43.884 116.166 46.4782 113.552 46.4782 110.344ZM46.4782 145.178C46.4782 141.97 43.8642 139.356 40.6561 139.356C37.4479 139.356 34.834 141.97 34.834 145.178C34.834 148.386 37.4479 151 40.6561 151C43.884 151 46.4782 148.386 46.4782 145.178ZM11.6443 5.82217C11.6443 2.61404 9.0303 0 5.82217 0C2.61404 0 0 2.61404 0 5.82217C0 9.0303 2.61404 11.6443 5.82217 11.6443C9.0303 11.6443 11.6443 9.0501 11.6443 5.82217ZM11.6443 40.6561C11.6443 37.448 9.0303 34.834 5.82217 34.834C2.61404 34.834 0 37.448 0 40.6561C0 43.8643 2.61404 46.4783 5.82217 46.4783C9.0303 46.4783 11.6443 43.8841 11.6443 40.6561ZM11.6443 75.4901C11.6443 72.282 9.0303 69.6679 5.82217 69.6679C2.61404 69.6679 0 72.282 0 75.4901C0 78.6982 2.61404 81.3123 5.82217 81.3123C9.0303 81.3123 11.6443 78.718 11.6443 75.4901ZM11.6443 110.344C11.6443 107.136 9.0303 104.522 5.82217 104.522C2.61404 104.522 0 107.136 0 110.344C0 113.552 2.61404 116.166 5.82217 116.166C9.0303 116.166 11.6443 113.552 11.6443 110.344ZM11.6443 145.178C11.6443 141.97 9.0303 139.356 5.82217 139.356C2.61404 139.356 0 141.97 0 145.178C0 148.386 2.61404 151 5.82217 151C9.0303 151 11.6443 148.386 11.6443 145.178Z" fill="#FF1F25" fill-opacity="0.6"/>
</svg>
